<?xml version="1.0" encoding="UTF-8" standalone="no"?>
<!DOCTYPE svg PUBLIC "-//W3C//DTD SVG 1.1//EN" "http://www.w3.org/Graphics/SVG/1.1/DTD/svg11.dtd">
<svg width="100%" height="100%" viewBox="0 0 845 861" version="1.1" xmlns="http://www.w3.org/2000/svg" xmlns:xlink="http://www.w3.org/1999/xlink" xml:space="preserve" xmlns:serif="http://www.serif.com/" style="fill-rule:evenodd;clip-rule:evenodd;stroke-linejoin:round;stroke-miterlimit:2;">
    <g transform="matrix(1,0,0,1,-659.751445,-1700.478017)">
        <g transform="matrix(2.627822,0.051899,-0.051899,2.627822,213.550184,190.68072)">
            <path d="M184.532,701.937C184.396,700.867 184.404,699.773 184.566,698.683C186.827,683.46 190.81,668.238 196.959,653.474C196.584,652.189 195.912,649.825 195.627,648.409C194.979,645.184 194.952,641.951 195.83,638.747C200.628,621.238 210.661,602.802 224.847,592.658C230.738,588.446 243.622,583.253 257.11,579.014L257.112,579.013C258.882,578.262 261.293,577.438 264.335,576.728C277.617,573.628 309.608,569.12 344.117,567.829C370.245,566.851 397.796,567.742 419.878,572.284C436.431,575.689 450.091,581.326 458.875,589.093C471.555,600.303 483.019,616.176 488.343,632.97C489.347,636.137 489.447,639.368 488.927,642.616C488.698,644.042 488.12,646.431 487.796,647.73C516.403,709.457 505.828,781.174 490.554,825.017C490.684,825.809 491.245,829.315 491.44,831.552C491.812,835.831 491.594,840.848 489.081,847.309C485.923,855.431 472.425,874.405 467.352,880.732C465.817,882.647 463.947,884.15 461.809,885.332C460.215,886.213 458.23,886.591 456.684,887.572C455.815,888.123 454.406,888.857 452.348,889.412C450.031,890.036 445.125,890.757 438.218,891.368C408.48,893.999 335.923,896.262 286.386,895.764C264.367,895.543 246.738,894.703 238.865,893.241C235.594,892.633 233.198,891.702 231.625,890.857C229.247,890.132 222.039,887.718 219.651,884.449C215.939,879.366 206.579,867.195 200.856,856.408C197.69,850.44 195.641,844.706 195.175,840.234C194.739,836.058 196.498,831.436 197.919,828.492C182,779.91 183.964,714.756 184.532,701.937ZM261.013,590.251C248.841,594.058 237.075,598.531 231.763,602.33C219.647,610.993 211.394,626.936 207.296,641.89C205.941,646.835 210.538,651.955 208.619,656.426C202.464,670.772 198.529,685.602 196.326,700.43L196.511,700.426C196.511,700.426 191.877,775.736 210.358,828.145C211.618,831.717 206.422,833.465 207,839C208.144,849.968 224.216,870.54 229.252,877.435C230.922,879.721 234.781,878.688 237.219,880.371C247.807,887.677 442.849,882.269 450.314,877.533C452.803,875.953 456.232,875.595 458.076,873.295C462.69,867.54 475.128,850.387 478,843C482.155,832.315 477.04,827.631 479.19,821.495C493.901,779.519 504.458,710.296 476.261,651.14C474.168,646.748 478.559,641.451 477.009,636.563C472.324,621.783 462.158,607.865 451,598C413.401,564.757 268.09,585.052 261.013,590.251Z" style="fill:rgb(12,64,13);"/>
        </g>
    </g>
</svg>
